<?xml version="1.0" encoding="UTF-8" standalone="no"?>
<!-- Generator: Adobe Illustrator 23.0.1, SVG Export Plug-In . SVG Version: 6.00 Build 0)  -->

<svg
   version="1.1"
   id="Livello_1"
   xml:space="preserve"
   width="512"
   height="512"
   viewBox="0 0 512 512"
   xmlns="http://www.w3.org/2000/svg"
   xmlns:svg="http://www.w3.org/2000/svg"><defs
   id="defs1234"><clipPath
     clipPathUnits="userSpaceOnUse"
     id="clipPath14978"><circle
       style="fill:#c1c5ca"
       id="circle14980"
       cx="256"
       cy="256"
       r="256" /></clipPath></defs>
<style
   type="text/css"
   id="style1211">
	.st0{fill:#5F6368;}
	.st1{fill:#4285F4;}
	.st2{fill:#34A853;}
	.st3{fill:#FBBC04;}
	.st4{fill:#EA4335;}
</style><circle
   style="fill:#c1c5ca"
   id="path5729"
   cx="256"
   cy="256"
   r="256" /><circle
   style="fill:#c1c5ca"
   id="circle13607"
   cx="256"
   cy="256"
   r="256" /><ellipse
   style="display:inline;fill:#ffffff"
   id="circle13276"
   cx="256"
   cy="256.01401"
   rx="251.12796"
   ry="251.03973" /><g
   id="g14976"
   clip-path="url(#clipPath14978)"><path
     id="rect8494"
     style="fill:#327eef"
     d="M 288.77872,0 H 512 V 512 H 118.07685 Z" /><path
     id="path18547"
     style="display:inline;fill:#4285f4"
     d="M 306.66835,0 H 512 V 512 H 135.96648 Z" /></g><g
   id="g15324"><path
     class="st4"
     d="m 109.14316,218.19895 c 8.95768,-0.17374 17.56748,3.21414 24.0031,9.38179 v 0 l 17.82839,-17.80802 c -11.30581,-10.68484 -26.26426,-16.50503 -41.83149,-16.33129 -23.655241,0 -45.310215,13.37775 -55.920284,34.48678 l 20.785297,16.15755 c 4.957163,-14.85452 18.785034,-25.88681 35.134987,-25.88681 z"
     id="path1227" /><path
     class="st3"
     d="m 53.222876,227.92821 c -8.957681,17.63431 -8.957681,38.48274 0,56.11705 l 20.785297,-16.15755 c -2.609033,-7.7313 -2.609033,-16.15754 0,-23.97568 z"
     id="path1225" /><path
     class="st2"
     d="m 130.45026,287.7806 c -5.6529,3.82221 -12.87123,5.99392 -21.3071,5.99392 -16.349953,0 -30.177824,-11.0323 -35.134987,-25.79994 l -20.785297,16.07068 c 10.610069,21.19589 32.265043,34.48678 55.920284,34.48678 16.87174,0 31.13446,-5.5596 41.48362,-15.11512 z"
     id="path1223" /><path
     class="st1"
     d="m 168.19427,244.69382 h -59.05111 v 24.06258 h 33.83046 c -1.39148,7.7313 -5.91381,14.68077 -12.52336,19.0242 v 0 l 20.17652,15.63632 v 0 c 11.82762,-10.85856 18.6111,-27.0161 18.6111,-46.0403 0,-4.25655 -0.34787,-8.5131 -1.04361,-12.6828 z"
     id="path1221" /><path
     d="m 424.8422,300.49182 -30.88012,-69.77571 h 17.70853 l 20.95245,50.37749 h 0.72892 l 20.29336,-50.37749 h 17.55582 l -45.79455,105.09785 h -16.85725 z"
     id="path4114"
     style="fill:#ffffff" /><path
     id="path4112"
     d="m 358.8434,229.35648 c -6.2912,0 -12.09747,1.25739 -17.4208,3.77342 -5.22653,2.51601 -9.43621,6.04812 -12.63017,10.59631 l 0.4429,0.33955 c -0.007,0.009 -0.0132,0.0168 -0.0192,0.0256 l 10.59328,8.16825 c 2.00424,-2.86602 4.67673,-5.11126 8.01715,-6.73533 3.34039,-1.71962 6.87108,-2.57969 10.59326,-2.57969 5.4401,0 9.87897,1.48029 13.31485,4.44183 3.43586,2.86602 5.15435,6.63909 5.15435,11.32026 v 3.63461 c -2.10321,-1.01633 -4.86384,-1.90159 -8.3167,-2.64802 -3.48435,-0.87093 -7.40607,-1.30692 -11.7615,-1.30692 -5.71047,0 -10.98334,0.91499 -15.62914,2.94716 -4.64582,1.9354 -8.39232,4.89162 -11.10238,8.66565 -2.71005,3.67727 -3.90142,8.08134 -3.90142,13.21016 0,4.83849 1.16254,9.14355 3.48544,12.9176 2.32291,3.77404 5.56487,6.72697 9.7267,8.8559 4.16188,2.03217 8.90517,3.04735 14.22847,3.04735 5.03295,0 9.53273,-1.06364 13.50101,-3.19257 3.96831,-2.2257 6.92913,-4.98484 9.05844,-8.27504 h 0.62264 v 9.14419 h 15.58143 v -46.3039 c 0,-9.48348 -2.79541,-16.78558 -8.69943,-22.01115 -5.80726,-5.32236 -14.19249,-8.03524 -24.83912,-8.03524 z m 0.7724,41.04846 c 3.2276,0 6.3132,0.37897 9.256,1.13608 2.94281,0.75709 5.55271,1.79718 7.83102,3.12208 0,3.59622 -0.75342,6.80513 -2.55709,9.92814 -1.70872,3.12302 -4.27875,5.782 -7.41141,7.67474 -3.13266,1.79811 -6.59498,2.69712 -10.39214,2.69712 -4.27181,0 -7.69214,-1.09066 -10.2552,-3.2673 -2.56311,-2.17666 -3.84275,-4.96634 -3.84275,-8.37327 0,-3.88012 1.37653,-7.00463 4.12946,-9.37054 2.8479,-2.36595 7.26156,-3.54705 13.24211,-3.54705 z"
     style="fill:#ffffff" /><path
     id="path4110"
     d="m 253.08546,202.13618 v 103.95924 h 16.12427 v -40.36259 h 19.64618 c 6.20411,0 11.8734,-1.35644 17.01118,-4.06675 5.2347,-2.71031 9.35575,-6.48397 12.36086,-11.3238 3.10206,-4.83984 4.65244,-10.30959 4.65244,-16.40777 -10e-6,-6.09821 -1.55038,-11.56794 -4.65244,-16.40777 -3.00511,-4.83984 -7.26709,-8.61349 -12.50179,-11.3238 -5.13777,-2.71031 -11.31435,-4.06676 -17.51847,-4.06676 z m 16.12427,15.50784 h 19.95392 c 5.26334,0 9.47215,1.65822 12.63015,4.97522 3.25371,3.22222 4.8811,7.01335 4.8811,11.37283 0,4.3595 -1.62739,8.19875 -4.8811,11.51573 -3.158,3.22224 -7.36681,4.83234 -12.63015,4.83234 h -19.95392 z"
     style="fill:#ffffff" /><path
     d="M 480.29976,305.36823 Z"
     id="path5225"
     style="fill:#ffffff" /><path
     d="m 424.96682,300.42313 -31.19442,-69.75327 17.96615,-0.11705 20.79971,50.44579 h 0.73639 l 20.47332,-50.44579 h 17.64316 l -45.9239,105.24035 h -16.9955 z"
     id="path5223"
     style="fill:#ffffff" /><path
     d="m 353.70056,307.6719 q -7.92926,0 -14.12852,-3.02358 -6.19924,-3.16755 -9.65927,-8.78276 -3.46005,-5.61521 -3.46005,-12.81421 0,-7.63092 4.03671,-13.10216 4.03672,-5.61521 10.95681,-8.49481 6.92008,-3.02357 15.42602,-3.02357 6.48758,0 11.67764,1.29582 5.33423,1.15183 8.50595,2.73562 v -3.88746 q 0,-7.05502 -5.19008,-11.37441 -5.19006,-4.46337 -13.40766,-4.46337 -5.62257,0 -10.66846,2.59164 -5.0459,2.44765 -8.07343,6.76705 l -10.66847,-8.20685 q 4.75756,-6.76706 12.54265,-10.51053 7.92927,-3.74347 17.30021,-3.74347 15.85853,0 24.50864,7.91889 8.79427,7.77491 8.79427,21.88493 v 45.92956 h -15.13767 v -9.07073 h -0.86503 q -3.1717,4.89531 -9.0826,8.20685 -5.91091,3.16755 -13.40766,3.16755 z m 2.73919,-12.67022 q 5.76674,0 10.5243,-2.73561 4.75756,-2.8796 7.35259,-7.63094 2.73921,-4.75132 2.73921,-10.22256 -3.46005,-2.01571 -7.92928,-3.16756 -4.46922,-1.15184 -9.37094,-1.15184 -9.08262,0 -13.40767,3.5995 -4.18088,3.59949 -4.18088,9.50266 0,5.18329 3.89254,8.49481 3.89256,3.31154 10.38013,3.31154 z"
     id="path5221"
     style="fill:#ffffff" /><path
     d="m 253.04096,202.27869 h 35.69302 q 9.28598,0 16.97595,4.04871 7.83504,4.04872 12.33294,11.27857 4.643,7.22985 4.643,16.33946 0,9.1096 -4.643,16.33946 -4.4979,7.22985 -12.33294,11.27856 -7.68997,4.04873 -16.97595,4.04873 h -19.73274 v 40.19796 h -15.96028 z m 36.1283,48.29539 q 7.98015,0 12.76823,-4.9163 4.93319,-5.06088 4.93319,-11.71235 0,-6.65147 -4.93319,-11.56775 -4.78808,-5.06091 -12.76823,-5.06091 h -20.16802 v 33.25731 z"
     id="path5219"
     style="fill:#ffffff" /></g><style
   type="text/css"
   id="style1211-8">
	.st0{fill:#5F6368;}
	.st1{fill:#4285F4;}
	.st2{fill:#34A853;}
	.st3{fill:#FBBC04;}
	.st4{fill:#EA4335;}
</style></svg>
