<svg width="400" height="400" viewBox="0 0 400 400" fill="none" xmlns="http://www.w3.org/2000/svg">
<path fill-rule="evenodd" clip-rule="evenodd" d="M41 55C41 32.9086 58.9086 15 81 15H318.476C340.568 15 358.476 32.9086 358.476 55V275.755C358.476 286.325 354.293 296.465 346.84 303.96L309.865 341.143C303.616 347.426 303.616 357.557 309.865 363.77C316.113 369.984 326.243 369.927 332.492 363.644L334.772 361.351C343.498 352.576 358.476 358.755 358.476 371.13V371.13C358.476 378.79 352.267 385 344.607 385H81C58.9086 385 41 367.091 41 345V55ZM101.84 150.68C96.1846 150.68 91.6 155.265 91.6 160.92V203.8C91.6 211.651 93.2213 218.307 96.464 223.768C99.7067 229.229 104.101 233.411 109.648 236.312C115.28 239.128 121.509 240.536 128.336 240.536C135.248 240.536 141.477 239.128 147.024 236.312C152.571 233.411 156.965 229.229 160.208 223.768C163.451 218.307 165.072 211.651 165.072 203.8V160.664C165.072 155.15 160.602 150.68 155.088 150.68V150.68C149.574 150.68 145.104 155.15 145.104 160.664V201.24C145.104 206.104 144.379 210.072 142.928 213.144C141.477 216.216 139.515 218.52 137.04 220.056C134.565 221.507 131.749 222.232 128.592 222.232C125.435 222.232 122.619 221.507 120.144 220.056C117.669 218.52 115.707 216.216 114.256 213.144C112.805 210.072 112.08 206.104 112.08 201.24V160.92C112.08 155.265 107.495 150.68 101.84 150.68V150.68ZM217.761 150.68C199.947 150.68 185.505 165.121 185.505 182.936V228.76C185.505 234.415 190.09 239 195.745 239V239C201.4 239 205.985 234.415 205.985 228.76V226.456C205.985 219.952 211.257 214.68 217.761 214.68V214.68C224.417 214.68 230.433 213.4 235.809 210.84C241.185 208.28 245.409 204.611 248.481 199.832C251.638 195.053 253.217 189.336 253.217 182.68C253.217 175.939 251.638 170.221 248.481 165.528C245.409 160.749 241.185 157.08 235.809 154.52C230.433 151.96 224.417 150.68 217.761 150.68V150.68ZM215.841 196.76V196.76C210.398 196.76 205.985 192.347 205.985 186.904V178.456C205.985 173.013 210.398 168.6 215.841 168.6V168.6C220.79 168.6 224.758 169.752 227.745 172.056C230.817 174.36 232.353 177.901 232.353 182.68C232.353 187.373 230.817 190.915 227.745 193.304C224.758 195.608 220.79 196.76 215.841 196.76ZM271.205 223.64C268.024 223.64 265.445 226.219 265.445 229.4V231.32C265.445 235.562 268.883 239 273.125 239H301.285C305.527 239 308.965 235.562 308.965 231.32V229.4C308.965 226.219 306.386 223.64 303.205 223.64V223.64C300.024 223.64 297.445 221.061 297.445 217.88V171.8C297.445 168.619 300.024 166.04 303.205 166.04V166.04C306.386 166.04 308.965 163.461 308.965 160.28V158.36C308.965 154.118 305.527 150.68 301.285 150.68H273.125C268.883 150.68 265.445 154.118 265.445 158.36V160.28C265.445 163.461 268.024 166.04 271.205 166.04V166.04C274.386 166.04 276.965 168.619 276.965 171.8V217.88C276.965 221.061 274.386 223.64 271.205 223.64V223.64Z" fill="#9EDE73"/>
</svg>
